<svg width="34" height="34" viewBox="0 0 34 34" fill="none" xmlns="http://www.w3.org/2000/svg">
<path fill-rule="evenodd" clip-rule="evenodd" d="M16.7999 33.3725C26.0154 33.3725 33.4861 25.9018 33.4861 16.6863C33.4861 7.47069 26.0154 0 16.7999 0C12.0348 0 7.73631 1.99733 4.69581 5.20044C4.5667 5.33645 4.46754 5.49053 4.39794 5.65498L2.01956 4.59606C1.31631 4.28295 0.537836 4.84855 0.618302 5.61413L1.52111 14.2038C1.60158 14.9694 2.48064 15.3608 3.10342 14.9083L10.0909 9.8316C10.7137 9.37912 10.6131 8.42214 9.90984 8.10903L7.83896 7.18702C10.1775 4.98021 13.3307 3.62744 16.7999 3.62744C24.0121 3.62744 29.8587 9.47407 29.8587 16.6862C29.8587 23.8984 24.0121 29.7451 16.7999 29.7451C11.2827 29.7451 6.56456 26.3236 4.65165 21.4867C4.34163 20.7028 3.61583 20.1325 2.77284 20.1325C1.58573 20.1325 0.695523 21.2298 1.09816 22.3466C3.41634 28.7761 9.57133 33.3725 16.7999 33.3725Z" fill="white"/>
</svg>
